<mxfile host="Electron" agent="Mozilla/5.0 (Windows NT 10.0; Win64; x64) AppleWebKit/537.36 (KHTML, like Gecko) draw.io/26.1.1 Chrome/132.0.6834.210 Electron/34.3.3 Safari/537.36" version="26.1.1">
  <diagram name="Page-1" id="QkVjPsneZp5UCrcEVyLg">
    <mxGraphModel dx="1098" dy="988" grid="1" gridSize="10" guides="1" tooltips="1" connect="1" arrows="1" fold="1" page="1" pageScale="1" pageWidth="850" pageHeight="1100" math="0" shadow="0">
      <root>
        <mxCell id="0" />
        <mxCell id="1" parent="0" />
        <mxCell id="gg7rYffDSEAOSvdVVT3K-13" value="7. Send to LLM" style="edgeStyle=elbowEdgeStyle;rounded=0;orthogonalLoop=1;jettySize=auto;html=1;elbow=vertical;curved=0;entryX=0;entryY=0;entryDx=0;entryDy=5;entryPerimeter=0;" parent="1" target="gg7rYffDSEAOSvdVVT3K-16" edge="1">
          <mxGeometry relative="1" as="geometry">
            <mxPoint x="700" y="390" as="targetPoint" />
            <mxPoint x="510" y="400.21" as="sourcePoint" />
          </mxGeometry>
        </mxCell>
        <mxCell id="gg7rYffDSEAOSvdVVT3K-22" value="6. Submit Details" style="edgeStyle=elbowEdgeStyle;rounded=0;orthogonalLoop=1;jettySize=auto;html=1;elbow=horizontal;curved=0;entryX=0;entryY=0;entryDx=0;entryDy=5;entryPerimeter=0;" parent="1" target="gg7rYffDSEAOSvdVVT3K-17" edge="1">
          <mxGeometry relative="1" as="geometry">
            <mxPoint x="220.00034482758605" y="369.6555172413793" as="sourcePoint" />
            <mxPoint x="509.69" y="369.6555172413793" as="targetPoint" />
          </mxGeometry>
        </mxCell>
        <mxCell id="gg7rYffDSEAOSvdVVT3K-1" value="User" style="shape=umlLifeline;perimeter=lifelinePerimeter;whiteSpace=wrap;html=1;container=1;dropTarget=0;collapsible=0;recursiveResize=0;outlineConnect=0;portConstraint=eastwest;newEdgeStyle={&quot;edgeStyle&quot;:&quot;elbowEdgeStyle&quot;,&quot;elbow&quot;:&quot;vertical&quot;,&quot;curved&quot;:0,&quot;rounded&quot;:0};" parent="1" vertex="1">
          <mxGeometry x="170" y="60" width="100" height="620" as="geometry" />
        </mxCell>
        <mxCell id="gg7rYffDSEAOSvdVVT3K-2" value="DietInputPage" style="shape=umlLifeline;perimeter=lifelinePerimeter;whiteSpace=wrap;html=1;container=1;dropTarget=0;collapsible=0;recursiveResize=0;outlineConnect=0;portConstraint=eastwest;newEdgeStyle={&quot;edgeStyle&quot;:&quot;elbowEdgeStyle&quot;,&quot;elbow&quot;:&quot;vertical&quot;,&quot;curved&quot;:0,&quot;rounded&quot;:0};" parent="1" vertex="1">
          <mxGeometry x="460" y="60" width="100" height="620" as="geometry" />
        </mxCell>
        <mxCell id="gg7rYffDSEAOSvdVVT3K-11" value="" style="html=1;points=[[0,0,0,0,5],[0,1,0,0,-5],[1,0,0,0,5],[1,1,0,0,-5]];perimeter=orthogonalPerimeter;outlineConnect=0;targetShapes=umlLifeline;portConstraint=eastwest;newEdgeStyle={&quot;curved&quot;:0,&quot;rounded&quot;:0};" parent="gg7rYffDSEAOSvdVVT3K-2" vertex="1">
          <mxGeometry x="45" y="190" width="10" height="50" as="geometry" />
        </mxCell>
        <mxCell id="gg7rYffDSEAOSvdVVT3K-17" value="" style="html=1;points=[[0,0,0,0,5],[0,1,0,0,-5],[1,0,0,0,5],[1,1,0,0,-5]];perimeter=orthogonalPerimeter;outlineConnect=0;targetShapes=umlLifeline;portConstraint=eastwest;newEdgeStyle={&quot;curved&quot;:0,&quot;rounded&quot;:0};" parent="gg7rYffDSEAOSvdVVT3K-2" vertex="1">
          <mxGeometry x="45" y="310" width="10" height="40" as="geometry" />
        </mxCell>
        <mxCell id="gg7rYffDSEAOSvdVVT3K-23" value="" style="html=1;points=[[0,0,0,0,5],[0,1,0,0,-5],[1,0,0,0,5],[1,1,0,0,-5]];perimeter=orthogonalPerimeter;outlineConnect=0;targetShapes=umlLifeline;portConstraint=eastwest;newEdgeStyle={&quot;curved&quot;:0,&quot;rounded&quot;:0};" parent="gg7rYffDSEAOSvdVVT3K-2" vertex="1">
          <mxGeometry x="45" y="390" width="10" height="40" as="geometry" />
        </mxCell>
        <mxCell id="gg7rYffDSEAOSvdVVT3K-25" value="" style="html=1;points=[[0,0,0,0,5],[0,1,0,0,-5],[1,0,0,0,5],[1,1,0,0,-5]];perimeter=orthogonalPerimeter;outlineConnect=0;targetShapes=umlLifeline;portConstraint=eastwest;newEdgeStyle={&quot;curved&quot;:0,&quot;rounded&quot;:0};" parent="gg7rYffDSEAOSvdVVT3K-2" vertex="1">
          <mxGeometry x="45" y="60" width="10" height="30" as="geometry" />
        </mxCell>
        <mxCell id="gg7rYffDSEAOSvdVVT3K-4" value="4. User enters details" style="edgeStyle=elbowEdgeStyle;rounded=0;orthogonalLoop=1;jettySize=auto;html=1;elbow=vertical;curved=0;entryX=0;entryY=0;entryDx=0;entryDy=5;entryPerimeter=0;" parent="1" source="gg7rYffDSEAOSvdVVT3K-1" target="gg7rYffDSEAOSvdVVT3K-11" edge="1">
          <mxGeometry x="0.0019" relative="1" as="geometry">
            <mxPoint as="offset" />
          </mxGeometry>
        </mxCell>
        <mxCell id="gg7rYffDSEAOSvdVVT3K-15" value="10. Move to Diet Details Page" style="edgeStyle=elbowEdgeStyle;rounded=0;orthogonalLoop=1;jettySize=auto;html=1;elbow=vertical;curved=0;dashed=1;dashPattern=8 8;" parent="1" target="gg7rYffDSEAOSvdVVT3K-1" edge="1">
          <mxGeometry relative="1" as="geometry">
            <mxPoint x="509.4799999999998" y="489.9995238095237" as="sourcePoint" />
            <mxPoint x="-159.9961904761905" y="489.9995238095237" as="targetPoint" />
          </mxGeometry>
        </mxCell>
        <mxCell id="gg7rYffDSEAOSvdVVT3K-12" value="LLM API" style="shape=umlLifeline;perimeter=lifelinePerimeter;whiteSpace=wrap;html=1;container=1;dropTarget=0;collapsible=0;recursiveResize=0;outlineConnect=0;portConstraint=eastwest;newEdgeStyle={&quot;edgeStyle&quot;:&quot;elbowEdgeStyle&quot;,&quot;elbow&quot;:&quot;vertical&quot;,&quot;curved&quot;:0,&quot;rounded&quot;:0};" parent="1" vertex="1">
          <mxGeometry x="680" y="60" width="100" height="610" as="geometry" />
        </mxCell>
        <mxCell id="gg7rYffDSEAOSvdVVT3K-16" value="" style="html=1;points=[[0,0,0,0,5],[0,1,0,0,-5],[1,0,0,0,5],[1,1,0,0,-5]];perimeter=orthogonalPerimeter;outlineConnect=0;targetShapes=umlLifeline;portConstraint=eastwest;newEdgeStyle={&quot;curved&quot;:0,&quot;rounded&quot;:0};" parent="gg7rYffDSEAOSvdVVT3K-12" vertex="1">
          <mxGeometry x="45" y="340" width="10" height="60" as="geometry" />
        </mxCell>
        <mxCell id="gg7rYffDSEAOSvdVVT3K-21" value="5. Display Changes" style="edgeStyle=elbowEdgeStyle;rounded=0;orthogonalLoop=1;jettySize=auto;html=1;elbow=vertical;curved=0;dashed=1;dashPattern=8 8;exitX=0;exitY=1;exitDx=0;exitDy=-5;exitPerimeter=0;" parent="1" source="gg7rYffDSEAOSvdVVT3K-11" edge="1">
          <mxGeometry x="-0.0008" relative="1" as="geometry">
            <mxPoint x="509.5000000000002" y="300.17333333333346" as="sourcePoint" />
            <mxPoint x="220" y="297" as="targetPoint" />
            <mxPoint as="offset" />
          </mxGeometry>
        </mxCell>
        <mxCell id="gg7rYffDSEAOSvdVVT3K-24" value="8. Recieve Response" style="edgeStyle=orthogonalEdgeStyle;rounded=0;orthogonalLoop=1;jettySize=auto;html=1;curved=0;entryX=1;entryY=0;entryDx=0;entryDy=5;entryPerimeter=0;dashed=1;dashPattern=8 8;" parent="1" source="gg7rYffDSEAOSvdVVT3K-16" target="gg7rYffDSEAOSvdVVT3K-23" edge="1">
          <mxGeometry relative="1" as="geometry">
            <Array as="points">
              <mxPoint x="720" y="455" />
              <mxPoint x="720" y="455" />
            </Array>
            <mxPoint as="offset" />
          </mxGeometry>
        </mxCell>
        <mxCell id="gg7rYffDSEAOSvdVVT3K-26" value="1. User enters page" style="edgeStyle=elbowEdgeStyle;rounded=0;orthogonalLoop=1;jettySize=auto;html=1;elbow=vertical;curved=0;entryX=0.51;entryY=0.313;entryDx=0;entryDy=0;entryPerimeter=0;" parent="1" edge="1">
          <mxGeometry x="0.0019" relative="1" as="geometry">
            <mxPoint x="220" y="120.16999999999999" as="sourcePoint" />
            <mxPoint x="511" y="120.16999999999999" as="targetPoint" />
            <mxPoint as="offset" />
          </mxGeometry>
        </mxCell>
        <mxCell id="gg7rYffDSEAOSvdVVT3K-27" value="3. Display page" style="edgeStyle=elbowEdgeStyle;rounded=0;orthogonalLoop=1;jettySize=auto;html=1;elbow=vertical;curved=0;dashed=1;dashPattern=8 8;" parent="1" edge="1">
          <mxGeometry x="0.0017" relative="1" as="geometry">
            <mxPoint x="509.5000000000002" y="150.00333333333347" as="sourcePoint" />
            <mxPoint x="220" y="150.00000000000003" as="targetPoint" />
            <mxPoint as="offset" />
          </mxGeometry>
        </mxCell>
        <mxCell id="gg7rYffDSEAOSvdVVT3K-30" value="Database" style="shape=umlLifeline;perimeter=lifelinePerimeter;whiteSpace=wrap;html=1;container=1;dropTarget=0;collapsible=0;recursiveResize=0;outlineConnect=0;portConstraint=eastwest;newEdgeStyle={&quot;edgeStyle&quot;:&quot;elbowEdgeStyle&quot;,&quot;elbow&quot;:&quot;vertical&quot;,&quot;curved&quot;:0,&quot;rounded&quot;:0};" parent="1" vertex="1">
          <mxGeometry x="880" y="60" width="100" height="610" as="geometry" />
        </mxCell>
        <mxCell id="sPLC3nc6SMwXd-1DGnIX-1" value="2. Add new meal plan or gets existing diet plan" style="edgeStyle=elbowEdgeStyle;rounded=0;orthogonalLoop=1;jettySize=auto;html=1;elbow=vertical;curved=0;" edge="1" parent="1" target="gg7rYffDSEAOSvdVVT3K-30">
          <mxGeometry relative="1" as="geometry">
            <mxPoint x="725" y="144.79000000000002" as="targetPoint" />
            <mxPoint x="510" y="140" as="sourcePoint" />
          </mxGeometry>
        </mxCell>
        <mxCell id="sPLC3nc6SMwXd-1DGnIX-2" value="9. Update meal plan with reponse" style="edgeStyle=elbowEdgeStyle;rounded=0;orthogonalLoop=1;jettySize=auto;html=1;elbow=vertical;curved=0;" edge="1" parent="1">
          <mxGeometry relative="1" as="geometry">
            <mxPoint x="930" y="470" as="targetPoint" />
            <mxPoint x="510" y="470" as="sourcePoint" />
          </mxGeometry>
        </mxCell>
      </root>
    </mxGraphModel>
  </diagram>
</mxfile>
